# xmcd
#
# Track frame offsets:
#	150
#	14694
#	27906
#	43609
#	65369
#	82691
#	98980
#	117362
#	138260
#	151868
#	166592
#	176387
#	188112
#	200804
#	220278
#	236991
#	247194
#	264850
#	276978
#	297185
#
# Disc length: 4177 seconds
# Revision: 0
# Processed by: cddbd v1.5.2PL0 Copyright (c) Steve Scherf et al.
# Submitted via: dBpowerAMP V12.0
#
DISCID=1c104f14
DTITLE=Ann Williamson - Golden Memories
DYEAR=1900
DGENRE=Irsih Country
TTITLE0=A Bottle Of Wine
TTITLE1=After All These Years
TTITLE2=My Conneemara Marble Ring
TTITLE3=Lady Of Knock
TTITLE4=The Old MAn
TTITLE5=More Than Yesterday
TTITLE6=If We Had Old Ireland Over Here
TTITLE7=Gold And Silver Days
TTITLE8=Mother's Chair
TTITLE9=The Wedding Song
TTITLE10=Old Claddagh Ring
TTITLE11=Happy Anniversary
TTITLE12=Medals For MOthers
TTITLE13=Old Flames
TTITLE14=Veil Of White Lace
TTITLE15=Golden Jubilee
TTITLE16=Your Wedding Day
TTITLE17=I'd Rather Die Young
TTITLE18=Silver Threads Among The GOld
TTITLE19=Village Where I Went To School
EXTD=
EXTT0=
EXTT1=
EXTT2=
EXTT3=
EXTT4=
EXTT5=
EXTT6=
EXTT7=
EXTT8=
EXTT9=
EXTT10=
EXTT11=
EXTT12=
EXTT13=
EXTT14=
EXTT15=
EXTT16=
EXTT17=
EXTT18=
EXTT19=
PLAYORDER=
